<svg width="24" height="24" viewBox="0 0 24 24" fill="none" xmlns="http://www.w3.org/2000/svg">
<path fill-rule="evenodd" clip-rule="evenodd" d="M13.3571 6.45056C13.3068 5.96422 13.2543 5.45963 13.1254 4.95611C12.7741 3.75153 11.801 3.00001 10.7576 3.00001C10.1757 2.99786 9.43954 3.35644 9.0222 3.71932L5.56287 6.61697H3.75194C2.41918 6.61697 1.34751 7.6444 1.14513 9.12705C0.973161 10.5506 0.931217 13.2379 1.14513 14.8042C1.33073 16.3706 2.35416 17.383 3.75194 17.383H5.56287L9.08931 20.3236C9.45107 20.6382 10.0897 20.9989 10.6769 20.9989C10.7146 21 10.7482 21 10.7817 21C11.845 21 12.7814 20.2206 13.1327 19.0192C13.265 18.5113 13.3114 18.0352 13.3563 17.5752L13.3571 17.5666L13.4043 17.1082C13.5846 15.6213 13.5846 8.36908 13.4043 6.89288L13.3571 6.45056ZM17.4068 6.49467C17.1185 6.06952 16.547 5.96324 16.1286 6.25848C15.7144 6.55586 15.6117 7.14205 15.9 7.56612C16.7022 8.74815 17.1437 10.3221 17.1437 12.0001C17.1437 13.6771 16.7022 15.252 15.9 16.4341C15.6117 16.8581 15.7144 17.4443 16.1297 17.7417C16.2849 17.8512 16.4663 17.9092 16.6529 17.9092C16.9539 17.9092 17.2349 17.7578 17.4068 17.5055C18.4198 16.0132 18.9787 14.0582 18.9787 12.0001C18.9787 9.942 18.4198 7.98697 17.4068 6.49467ZM19.2901 3.22106C19.7074 2.92475 20.281 3.03318 20.5673 3.45726C22.136 5.76657 23 8.80164 23 11.9999C23 15.2003 22.136 18.2343 20.5673 20.5436C20.3963 20.7959 20.1143 20.9473 19.8133 20.9473C19.6267 20.9473 19.4463 20.8893 19.2911 20.7798C18.8759 20.4824 18.7731 19.8973 19.0604 19.4722C20.4173 17.4731 21.165 14.8192 21.165 11.9999C21.165 9.18169 20.4173 6.52775 19.0604 4.52871C18.7731 4.10464 18.8759 3.51845 19.2901 3.22106Z" fill="#130F26"/>
</svg>
