<svg width="38" height="38" viewBox="0 0 38 38" fill="none" xmlns="http://www.w3.org/2000/svg">
<circle cx="19" cy="19" r="19" fill="rgb(255, 59, 92)"/>
<g clip-path="url(#clip0_6664_132894)">
<path d="M14.3469 18.7982L14.3469 18.7982C12.6695 20.439 12.6695 23.0989 14.3469 24.7396L14.3469 24.7397C16.0222 26.378 18.7343 26.378 20.4096 24.7397L26.1775 19.099C26.5134 18.7705 27.0646 18.7705 27.4005 19.099C27.7339 19.4251 27.7339 19.9565 27.4005 20.2826L21.6326 25.9232C19.2818 28.2222 15.4747 28.2222 13.1239 25.9232C10.7774 23.6267 10.7774 19.9112 13.1239 17.6147C13.1239 17.6146 13.1239 17.6146 13.124 17.6146L20.106 10.7866C21.7852 9.14511 24.507 9.14511 26.1862 10.7866C27.8629 12.4255 27.8629 15.0803 26.1862 16.7201L19.5076 23.2513C18.5001 24.2366 16.8636 24.2366 15.856 23.2513L15.856 23.2513C14.8506 22.2684 14.8506 20.6757 15.856 19.6928L15.856 19.6928L21.3203 14.349C21.6562 14.0205 22.2075 14.0205 22.5433 14.349C22.8767 14.6751 22.8767 15.2065 22.5433 15.5326L17.0791 20.8763C16.7446 21.2034 16.7446 21.7407 17.0791 22.0678C17.411 22.3924 17.9526 22.3924 18.2846 22.0678L24.9632 15.5365C25.9693 14.5526 25.9693 12.954 24.9632 11.9701C23.9596 10.9882 22.3327 10.9882 21.329 11.9701L14.3469 18.7982Z" fill="white" stroke="rgb(255, 59, 92)" stroke-width="0.4"/>
</g>
<defs>
<clipPath id="clip0_6664_132894">
<rect width="17" height="19" fill="white" transform="translate(11 9.00391)"/>
</clipPath>
</defs>
</svg>
