<svg width="16" height="17" viewBox="0 0 16 17" fill="none" xmlns="http://www.w3.org/2000/svg">
<path fill-rule="evenodd" clip-rule="evenodd" d="M8.16359 15.1671C7.26025 15.1671 6.37959 15.1571 5.50825 15.1391C4.39358 15.1171 3.62225 14.3944 3.49625 13.2531C3.28625 11.3598 2.92692 6.89709 2.92358 6.85243C2.90092 6.57709 3.10625 6.33576 3.38159 6.31376C3.65292 6.30643 3.89825 6.49709 3.92025 6.77176C3.92359 6.81709 4.28225 11.2644 4.49025 13.1431C4.56159 13.7918 4.91158 14.1264 5.52892 14.1391C7.19559 14.1744 8.89625 14.1764 10.7296 14.1431C11.3856 14.1304 11.7403 13.8024 11.8136 13.1384C12.0203 11.2758 12.3803 6.81709 12.3843 6.77176C12.4063 6.49709 12.6496 6.30509 12.9223 6.31376C13.1976 6.33643 13.4029 6.57709 13.3809 6.85243C13.3769 6.89776 13.0156 11.3718 12.8076 13.2484C12.6783 14.4131 11.9089 15.1218 10.7476 15.1431C9.85892 15.1584 9.00159 15.1671 8.16359 15.1671Z" fill="#DE0C0C"/>
<path fill-rule="evenodd" clip-rule="evenodd" d="M13.8053 5.16016H2.5C2.224 5.16016 2 4.93616 2 4.66016C2 4.38416 2.224 4.16016 2.5 4.16016H13.8053C14.0813 4.16016 14.3053 4.38416 14.3053 4.66016C14.3053 4.93616 14.0813 5.16016 13.8053 5.16016Z" fill="#DE0C0C"/>
<path fill-rule="evenodd" clip-rule="evenodd" d="M11.6284 5.15998C10.8697 5.15998 10.211 4.61932 10.0617 3.87532L9.89969 3.06465C9.86569 2.94132 9.72502 2.83398 9.56502 2.83398H6.74302C6.58302 2.83398 6.44235 2.94132 6.40169 3.09532L6.24635 3.87532C6.09769 4.61932 5.43835 5.15998 4.67969 5.15998C4.40369 5.15998 4.17969 4.93598 4.17969 4.65998C4.17969 4.38398 4.40369 4.15998 4.67969 4.15998C4.96369 4.15998 5.21035 3.95732 5.26635 3.67865L5.42835 2.86798C5.59302 2.24665 6.13102 1.83398 6.74302 1.83398H9.56502C10.177 1.83398 10.715 2.24665 10.873 2.83798L11.0424 3.67865C11.0977 3.95732 11.3444 4.15998 11.6284 4.15998C11.9044 4.15998 12.1284 4.38398 12.1284 4.65998C12.1284 4.93598 11.9044 5.15998 11.6284 5.15998Z" fill="#DE0C0C"/>
</svg>
