<svg width="25" height="24" viewBox="0 0 25 24" fill="none" xmlns="http://www.w3.org/2000/svg">
<path d="M19.3523 4.92895C17.4636 3.0402 14.9523 2 12.2812 2C9.61016 2 7.09891 3.0402 5.2102 4.92895C3.32141 6.81766 2.28125 9.32891 2.28125 12C2.28125 14.6711 3.32141 17.1823 5.2102 19.0711C7.09891 20.9598 9.61016 22 12.2812 22C14.9523 22 17.4636 20.9598 19.3523 19.0711C21.2411 17.1823 22.2812 14.6711 22.2812 12C22.2812 9.32891 21.2411 6.81766 19.3523 4.92895ZM12.2812 20.8095C7.42367 20.8095 3.47172 16.8576 3.47172 12C3.47172 7.14242 7.42367 3.19047 12.2812 3.19047C17.1388 3.19047 21.0908 7.14242 21.0908 12C21.0908 16.8576 17.1388 20.8095 12.2812 20.8095Z" fill="#BABABA"/>
<path d="M10.1161 9.359C9.14138 8.3842 7.55532 8.38428 6.5806 9.359C6.34813 9.59143 6.34813 9.96834 6.5806 10.2008C6.8131 10.4332 7.19001 10.4332 7.42243 10.2008C7.93306 9.69021 8.76384 9.69025 9.27439 10.2008C9.39064 10.3171 9.54294 10.3752 9.69524 10.3752C9.84755 10.3752 9.99993 10.3171 10.1161 10.2008C10.3486 9.96834 10.3486 9.59146 10.1161 9.359ZM17.9779 9.359C17.0032 8.38428 15.4171 8.3842 14.4424 9.359C14.2099 9.59143 14.2099 9.96834 14.4424 10.2008C14.6749 10.4332 15.0518 10.4332 15.2842 10.2008C15.7948 9.69021 16.6256 9.69018 17.1362 10.2008C17.2524 10.3171 17.4047 10.3752 17.557 10.3752C17.7093 10.3752 17.8617 10.3171 17.9779 10.2008C18.2104 9.96834 18.2104 9.59146 17.9779 9.359ZM17.5571 12.4363H7.00153C6.67278 12.4363 6.4063 12.7028 6.4063 13.0315C6.4063 16.2699 9.04095 18.9046 12.2793 18.9046C15.5177 18.9046 18.1523 16.2699 18.1523 13.0315C18.1523 12.7028 17.8858 12.4363 17.5571 12.4363ZM12.2793 17.7141C9.89892 17.7141 7.92767 15.9288 7.63442 13.6268H16.9242C16.6309 15.9288 14.6597 17.7141 12.2793 17.7141Z" fill="#BABABA"/>
</svg>
