<svg width="24" height="6" viewBox="0 0 24 6" fill="none" xmlns="http://www.w3.org/2000/svg">
<path d="M2.62039 5.62001C1.17535 5.62001 0 4.44524 0 3.00001C0 1.55555 1.17535 0.380005 2.62039 0.380005C4.06542 0.380005 5.24078 1.55548 5.24078 3.00001C5.24071 4.44524 4.06542 5.62001 2.62039 5.62001ZM11.8527 5.62001C10.4077 5.62001 9.23234 4.44524 9.23234 3.00001C9.23234 1.55555 10.4077 0.380005 11.8527 0.380005C13.2975 0.380005 14.4731 1.55548 14.4731 3.00001C14.4731 4.44524 13.2975 5.62001 11.8527 5.62001ZM21.3796 5.62001C19.9348 5.62001 18.7592 4.44524 18.7592 3.00001C18.7592 1.55555 19.9348 0.380005 21.3796 0.380005C22.8245 0.380005 24 1.55548 24 3.00001C24 4.44524 22.8245 5.62001 21.3796 5.62001Z" fill="black"/>
</svg>
