<svg width="25" height="24" viewBox="0 0 25 24" fill="none" xmlns="http://www.w3.org/2000/svg">
<g clip-path="url(#clip0_7707_14017)">
<path d="M2.90164 14.6199C1.4566 14.6199 0.28125 13.4451 0.28125 11.9999C0.28125 10.5554 1.4566 9.37988 2.90164 9.37988C4.34667 9.37988 5.52203 10.5554 5.52203 11.9999C5.52196 13.4451 4.34667 14.6199 2.90164 14.6199ZM12.134 14.6199C10.6889 14.6199 9.51359 13.4451 9.51359 11.9999C9.51359 10.5554 10.6889 9.37988 12.134 9.37988C13.5788 9.37988 14.7544 10.5554 14.7544 11.9999C14.7543 13.4451 13.5788 14.6199 12.134 14.6199ZM21.6609 14.6199C20.2161 14.6199 19.0405 13.4451 19.0405 11.9999C19.0405 10.5554 20.216 9.37988 21.6609 9.37988C23.1057 9.37988 24.2812 10.5554 24.2812 11.9999C24.2812 13.4451 23.1057 14.6199 21.6609 14.6199Z" fill="rgb(255, 59, 92)"/>
</g>
<defs>
<clipPath id="clip0_7707_14017">
<rect width="24" height="24" fill="white" transform="translate(0.28125)"/>
</clipPath>
</defs>
</svg>
