<svg width="16" height="20" viewBox="0 0 16 20" fill="none" xmlns="http://www.w3.org/2000/svg">
<path d="M1.33404 1.25C1.33404 0.559766 1.93144 0 2.66807 0H13.3403C14.0782 0 14.6743 0.559766 14.6743 1.25C14.6743 1.94023 14.0782 2.5 13.3403 2.5H12.1105L12.5857 8.28906C14.1157 9.06641 15.3205 10.3672 15.8999 11.9883L15.9416 12.1055C16.075 12.4844 15.9708 12.9062 15.7207 13.2305C15.5039 13.5586 15.1037 13.75 14.6743 13.75H1.33404C0.90507 13.75 0.502361 13.5586 0.251815 13.2305C0.00109723 12.9062 -0.0671423 12.4844 0.0684697 12.1055L0.110241 11.9883C0.686624 10.3672 1.8935 9.06641 3.42429 8.28906L3.89954 2.5H2.66807C1.93144 2.5 1.33404 1.94023 1.33404 1.25ZM9.33819 15V18.75C9.33819 19.4414 8.74205 20 8.00417 20C7.26629 20 6.67014 19.4414 6.67014 18.75V15H9.33819Z" fill="#6B6B6B"/>
</svg>
