<svg width="25" height="24" viewBox="0 0 25 24" fill="none" xmlns="http://www.w3.org/2000/svg">
<path d="M9.79833 7.50328V8.14233L10.4373 8.15319C17.1919 8.26795 22.6313 13.6955 22.6313 20.325V20.3251C22.6313 20.3275 22.6305 20.3313 22.627 20.3358L23.1368 20.739L22.627 20.3358C22.6232 20.3405 22.6163 20.3459 22.6058 20.3485C22.5952 20.3512 22.5841 20.3502 22.5748 20.3462C22.5657 20.3423 22.5607 20.3367 22.5584 20.3326L22.5571 20.3301L22.5378 20.2959L22.5376 20.2955C20.3643 16.4412 16.228 14.0506 11.7481 14.0506H10.4483H9.79833V14.7006V18.5242C9.79832 18.5268 9.79761 18.5303 9.79486 18.5343L10.3336 18.898L9.79486 18.5343C9.79211 18.5384 9.78706 18.5433 9.7791 18.5468C9.77223 18.5495 9.76301 18.5507 9.75264 18.5488C9.74216 18.5469 9.7348 18.5426 9.73018 18.5382C9.73014 18.5382 9.7301 18.5381 9.73007 18.5381L1.93934 11.1146L1.93756 11.1129C1.9347 11.1102 1.93313 11.1077 1.93231 11.1058C1.93149 11.1039 1.93125 11.1023 1.93125 11.1011C1.93125 11.0998 1.93149 11.0982 1.93231 11.0964C1.93313 11.0944 1.9347 11.0919 1.93756 11.0892L1.93934 11.0875L9.73076 3.66336L9.73077 3.66336L9.73343 3.6608C9.73775 3.65663 9.74467 3.65253 9.75389 3.65081C9.76316 3.64908 9.7726 3.65019 9.78052 3.65348L10.0298 3.05317L9.78052 3.65348C9.78834 3.65673 9.79308 3.66137 9.79552 3.665C9.79786 3.66849 9.79835 3.67131 9.79834 3.67318L9.79833 3.67318V3.67692V7.50328ZM10.4483 7.50328V3.67692V7.50328Z" stroke="#BABABA" stroke-width="1.3"/>
</svg>
