<svg width="16" height="16" viewBox="0 0 16 16" fill="none" xmlns="http://www.w3.org/2000/svg">
<path fill-rule="evenodd" clip-rule="evenodd" d="M11.1178 4.17715C11.1821 4.23665 11.234 4.30825 11.2706 4.38784C11.3073 4.46744 11.3278 4.55347 11.3312 4.64102C11.3345 4.72857 11.3206 4.81592 11.2901 4.89807C11.2597 4.98023 11.2134 5.05558 11.1538 5.11981L5.14912 11.6018C5.03479 11.7271 4.89559 11.8273 4.74039 11.8957C4.58519 11.9642 4.41742 11.9996 4.24778 11.9996C4.07814 11.9996 3.91037 11.9642 3.75517 11.8957C3.59998 11.8273 3.46077 11.7271 3.34645 11.6018L0.841782 8.89848C0.72155 8.7687 0.657798 8.59647 0.664549 8.41969C0.6713 8.24291 0.748002 8.07604 0.877782 7.95581C1.00756 7.83558 1.17979 7.77183 1.35657 7.77858C1.53336 7.78533 1.70022 7.86203 1.82045 7.99181L4.24778 10.6131L10.1751 4.21315C10.2346 4.14884 10.3062 4.09689 10.3858 4.06028C10.4654 4.02366 10.5514 4.0031 10.639 3.99975C10.7265 3.99641 10.8139 4.01036 10.896 4.04079C10.9782 4.07123 11.0535 4.11757 11.1178 4.17715ZM14.4511 4.17715C14.5154 4.23665 14.5674 4.30825 14.604 4.38784C14.6406 4.46744 14.6612 4.55347 14.6645 4.64102C14.6679 4.72857 14.6539 4.81592 14.6235 4.89807C14.593 4.98023 14.5467 5.05558 14.4871 5.11981L8.48312 11.6018C8.36288 11.7316 8.19602 11.8083 8.01924 11.815C7.84245 11.8218 7.67023 11.758 7.54045 11.6378C7.41067 11.5176 7.33397 11.3507 7.32722 11.1739C7.32046 10.9972 7.38422 10.8249 7.50445 10.6951L13.5091 4.21315C13.6293 4.08348 13.796 4.00684 13.9727 4.00009C14.1493 3.99334 14.3214 4.05702 14.4511 4.17715Z" fill="rgb(255, 59, 92)"/>
</svg>
