<svg width="14" height="14" viewBox="0 0 14 14" fill="none" xmlns="http://www.w3.org/2000/svg">
<path d="M10.4501 8.35301C10.299 8.49942 10.2296 8.71117 10.264 8.91884L10.7826 11.7888C10.8263 12.0321 10.7237 12.2783 10.5201 12.4188C10.3206 12.5647 10.0552 12.5822 9.83757 12.4655L7.25399 11.118C7.16416 11.0702 7.06441 11.0445 6.96232 11.0416H6.80424C6.74941 11.0498 6.69574 11.0673 6.64674 11.0941L4.06257 12.448C3.93482 12.5122 3.79016 12.5349 3.64841 12.5122C3.30307 12.4468 3.07266 12.1178 3.12924 11.7708L3.64841 8.90076C3.68282 8.69134 3.61341 8.47843 3.46232 8.32967L1.35591 6.28801C1.17974 6.11709 1.11849 5.86042 1.19899 5.62884C1.27716 5.39784 1.47666 5.22926 1.71757 5.19134L4.61674 4.77076C4.83724 4.74801 5.03091 4.61384 5.13007 4.41551L6.40757 1.79634C6.43791 1.73801 6.47699 1.68434 6.52424 1.63884L6.57674 1.59801C6.60416 1.56767 6.63566 1.54259 6.67066 1.52217L6.73424 1.49884L6.83341 1.45801H7.07899C7.29832 1.48076 7.49141 1.61201 7.59232 1.80801L8.88674 4.41551C8.98007 4.60626 9.16149 4.73867 9.37091 4.77076L12.2701 5.19134C12.5151 5.22634 12.7198 5.39551 12.8009 5.62884C12.8773 5.86276 12.8114 6.11942 12.6317 6.28801L10.4501 8.35301Z" fill="#707070"/>
</svg>
