<svg width="16" height="17" viewBox="0 0 16 17" fill="none" xmlns="http://www.w3.org/2000/svg">
<path fill-rule="evenodd" clip-rule="evenodd" d="M7.83588 3.5C7.77521 3.5 7.62588 3.51667 7.54655 3.67533L6.32921 6.10933C6.13655 6.494 5.76521 6.76133 5.33588 6.82267L2.61055 7.21533C2.43055 7.24133 2.36921 7.37467 2.35055 7.43067C2.33388 7.48467 2.30721 7.622 2.43121 7.74067L4.40188 9.634C4.71588 9.936 4.85855 10.3713 4.78388 10.7973L4.31988 13.4707C4.29121 13.638 4.39588 13.7353 4.44255 13.7687C4.49188 13.806 4.62388 13.88 4.78721 13.7947L7.22388 12.5313C7.60788 12.3333 8.06521 12.3333 8.44788 12.5313L10.8839 13.794C11.0479 13.8787 11.1799 13.8047 11.2299 13.7687C11.2765 13.7353 11.3812 13.638 11.3525 13.4707L10.8872 10.7973C10.8125 10.3713 10.9552 9.936 11.2692 9.634L13.2399 7.74067C13.3645 7.622 13.3379 7.484 13.3205 7.43067C13.3025 7.37467 13.2412 7.24133 13.0612 7.21533L10.3359 6.82267C9.90721 6.76133 9.53588 6.494 9.34321 6.10867L8.12455 3.67533C8.04588 3.51667 7.89655 3.5 7.83588 3.5ZM4.63388 14.8333C4.35855 14.8333 4.08522 14.7467 3.85121 14.576C3.44721 14.28 3.24922 13.7913 3.33521 13.2993L3.79921 10.626C3.81655 10.5267 3.78255 10.426 3.70921 10.3553L1.73855 8.462C1.37588 8.11467 1.24588 7.60133 1.39921 7.12467C1.55388 6.64267 1.96321 6.298 2.46788 6.226L5.19322 5.83333C5.29855 5.81867 5.38921 5.754 5.43455 5.662L6.65255 3.22733C6.87721 2.77867 7.33055 2.5 7.83588 2.5C8.34122 2.5 8.79455 2.77867 9.01921 3.22733L10.2379 5.66133C10.2839 5.754 10.3739 5.81867 10.4785 5.83333L13.2039 6.226C13.7085 6.298 14.1179 6.64267 14.2725 7.12467C14.4259 7.60133 14.2952 8.11467 13.9325 8.462L11.9619 10.3553C11.8885 10.426 11.8552 10.5267 11.8725 10.6253L12.3372 13.2993C12.4225 13.792 12.2245 14.2807 11.8199 14.576C11.4099 14.8767 10.8759 14.9173 10.4232 14.6813L7.98788 13.4193C7.89255 13.37 7.77855 13.37 7.68322 13.4193L5.24788 14.682C5.05322 14.7833 4.84321 14.8333 4.63388 14.8333Z" fill="#222222"/>
</svg>
