<svg width="16" height="17" viewBox="0 0 16 17" fill="none" xmlns="http://www.w3.org/2000/svg">
<path d="M3.56921 6.61689C3.72551 6.5941 3.88339 6.64651 3.99503 6.75825L9.82192 12.5898C10.227 12.9952 9.74244 13.6526 9.23529 13.3856L8.23048 12.8566C8.08471 12.7799 7.91049 12.7799 7.7647 12.8566L4.7009 14.4688C4.33415 14.6618 3.9053 14.3505 3.97523 13.942L4.55993 10.5264C4.58769 10.3642 4.53389 10.1988 4.41605 10.0839L1.93624 7.66745C1.63949 7.37828 1.80305 6.87436 2.21306 6.81459L3.56921 6.61689ZM11.4176 10.4073C11.401 10.3199 11.4293 10.23 11.493 10.1679L14.0584 7.66805C14.3552 7.37877 14.1914 6.87466 13.7812 6.81514L10.3578 6.31842C10.1949 6.29479 10.0541 6.19253 9.98122 6.04496L8.44638 2.93629C8.26287 2.56461 7.73265 2.56451 7.54918 2.93622C7.17971 3.68477 6.67734 4.70209 6.35231 5.35922C6.20088 5.66536 5.79491 5.73067 5.55371 5.48885L3.81782 3.74848C3.62264 3.55278 3.3057 3.55258 3.11026 3.74802L2.87116 3.98712C2.6759 4.18239 2.6759 4.49897 2.87116 4.69423L12.8053 14.6284C13.0001 14.8231 13.3157 14.8237 13.5112 14.6296L13.7482 14.3942C13.9447 14.1992 13.9452 13.8816 13.7495 13.6859L11.7237 11.6601C11.6503 11.5867 11.6016 11.4924 11.5843 11.3901L11.4176 10.4073Z" fill="#222222"/>
</svg>
