<svg width="130" height="165" viewBox="0 0 130 165" fill="none" xmlns="http://www.w3.org/2000/svg">
    <path
        d="M90.6366 37.0271C89.8259 35.7465 88.0369 35.5123 86.5436 35.7712C85.0503 36.0302 83.6128 36.6506 82.091 36.5729C79.2537 36.4392 76.5681 33.9145 73.9051 34.849C72.2069 35.4554 71.2563 37.2699 69.7336 38.24C67.1679 39.8719 63.0871 39.1043 61.5499 41.7259C60.658 43.236 61.2401 45.3617 62.606 46.5073C63.3148 47.0437 64.1304 47.4216 64.9979 47.6156C65.8653 47.8095 66.7643 47.8149 67.634 47.6314C69.6973 47.2758 71.6297 46.2269 73.6924 46.4173C75.755 46.6077 77.8406 48.1359 79.8571 47.4992C81.8736 46.8624 82.7034 44.4036 84.4688 43.2299C85.4588 42.6855 86.5229 42.2885 87.6275 42.0514C88.7068 41.7232 89.8195 41.2193 90.4065 40.2536C90.9935 39.2879 91.3485 37.3554 90.659 37.0052"
        fill="#EDEBF7" />
    <path
        d="M10.7197 136.544C10.8051 136.537 10.9233 136.844 10.9909 137.236C11.0584 137.628 11.0428 137.964 10.9603 137.978C10.8778 137.992 10.7596 137.686 10.6891 137.286C10.6185 136.886 10.6371 136.558 10.7197 136.544Z"
        fill="#A5B2E2" />
    <path
        d="M10.5703 130.748C10.7028 131.222 10.7399 131.718 10.6795 132.207C10.7132 132.697 10.6484 133.188 10.4891 133.653C10.3162 132.689 10.3438 131.701 10.5703 130.748Z"
        fill="#A5B2E2" />
    <path
        d="M11.6261 125.042C11.5993 126.021 11.3694 126.983 10.9511 127.868C10.9149 127.378 10.9797 126.886 11.1415 126.422C11.2089 125.934 11.3737 125.465 11.6261 125.042Z"
        fill="#A5B2E2" />
    <path
        d="M13.7918 119.655C13.5706 120.608 13.1575 121.505 12.5777 122.293C12.633 121.804 12.792 121.334 13.0441 120.912C13.2016 120.445 13.4565 120.016 13.7918 119.655Z"
        fill="#A5B2E2" />
    <path
        d="M16.9395 114.807C16.7839 115.273 16.5349 115.703 16.2078 116.07C15.957 116.493 15.6251 116.862 15.2311 117.155C15.3869 116.689 15.6359 116.259 15.9629 115.892C16.2145 115.47 16.5463 115.101 16.9395 114.807Z"
        fill="#A5B2E2" />
    <path
        d="M21.0687 110.701C20.5042 111.496 19.7762 112.161 18.9337 112.651C19.1849 112.228 19.5189 111.86 19.9156 111.568C20.5171 111.028 21.0162 110.633 21.0687 110.701Z"
        fill="#A5B2E2" />
    <path
        d="M25.9612 107.571C25.6253 107.931 25.2206 108.22 24.7709 108.421C24.3639 108.695 23.912 108.894 23.436 109.011C23.3828 108.93 23.919 108.552 24.6209 108.158C25.3228 107.764 25.9027 107.488 25.9612 107.571Z"
        fill="#A5B2E2" />
    <path
        d="M31.2647 105.223C31.2996 105.302 30.7214 105.617 29.9817 105.924C29.242 106.232 28.616 106.411 28.5788 106.338C28.5416 106.264 29.1221 105.943 29.8671 105.639C30.6121 105.334 31.2375 105.141 31.2647 105.223Z"
        fill="#A5B2E2" />
    <path
        d="M36.6786 103.101C36.7135 103.18 36.1247 103.491 35.3744 103.793C34.6241 104.096 33.9975 104.263 33.9679 104.186C33.9384 104.109 34.5218 103.796 35.2721 103.494C36.0225 103.191 36.6491 103.024 36.6786 103.101Z"
        fill="#A5B2E2" />
    <path
        d="M41.9447 100.648C41.5913 100.991 41.1722 101.259 40.7125 101.435C39.9911 101.802 39.3805 102.033 39.3456 101.954C39.7027 101.615 40.1209 101.348 40.5778 101.166C41.2798 100.829 41.8998 100.577 41.9447 100.648Z"
        fill="#A5B2E2" />
    <path
        d="M46.6766 97.2929C46.4294 97.7221 46.0848 98.0872 45.6705 98.3586C45.3155 98.7046 44.8853 98.9639 44.4135 99.1162C44.7102 98.7249 45.074 98.3894 45.4881 98.1253C45.8344 97.7827 46.2362 97.5012 46.6766 97.2929Z"
        fill="#A5B2E2" />
    <path
        d="M50.2319 92.7257C50.1398 93.2126 49.9267 93.6686 49.6122 94.0517C49.3807 94.4914 49.0457 94.8682 48.6362 95.1498C48.8063 94.6925 49.051 94.2665 49.3603 93.8891C49.5863 93.4569 49.8806 93.064 50.2319 92.7257Z"
        fill="#A5B2E2" />
    <path
        d="M52.1857 87.2854C52.2493 87.7769 52.1894 88.2765 52.0112 88.7389C51.9247 89.2283 51.7203 89.6893 51.4157 90.082C51.4324 89.5933 51.5304 89.1108 51.7057 88.6543C51.7905 88.175 51.9526 87.7127 52.1857 87.2854Z"
        fill="#A5B2E2" />
    <path
        d="M52.2566 81.5027C52.3391 81.4885 52.5219 82.1222 52.5874 82.9198C52.6729 83.4096 52.6373 83.9128 52.4838 84.3857C52.341 83.9189 52.2737 83.4323 52.2844 82.9443C52.2017 82.468 52.1923 81.9818 52.2566 81.5027Z"
        fill="#A5B2E2" />
    <path
        d="M50.222 76.0932C50.5945 76.4209 50.8822 76.834 51.0603 77.2971C51.4165 78.0267 51.5762 78.6692 51.4996 78.6988C51.423 78.7283 51.1147 78.1343 50.791 77.4317C50.4672 76.7292 50.146 76.1358 50.222 76.0932Z"
        fill="#A5B2E2" />
    <path
        d="M46.3571 71.7981C46.8216 71.971 47.2365 72.2553 47.5653 72.6261C47.9632 72.9251 48.2799 73.3188 48.4867 73.7715C48.0647 73.5243 47.6844 73.212 47.3598 72.8462C46.9685 72.5562 46.6294 72.2018 46.3571 71.7981Z"
        fill="#A5B2E2" />
    <path
        d="M41.1849 69.2194C41.6811 69.1969 42.1747 69.302 42.6186 69.5247C43.0985 69.6579 43.5374 69.9093 43.8951 70.2559C43.4142 70.1769 42.948 70.0258 42.5121 69.8078C42.0416 69.6824 41.5938 69.4838 41.1849 69.2194Z"
        fill="#A5B2E2" />
    <path
        d="M35.4245 69.0082C35.405 68.9234 36.038 68.7276 36.8463 68.6668C37.3365 68.5758 37.8421 68.6179 38.3104 68.7887C37.8403 68.9153 37.3545 68.9737 36.8678 68.9622C36.3917 69.0495 35.9052 69.065 35.4245 69.0082Z"
        fill="#A5B2E2" />
    <path
        d="M30.0837 71.2033C30.3942 70.8147 30.7977 70.5108 31.2569 70.3196C31.9694 69.9304 32.6084 69.75 32.6379 69.8267C32.6674 69.9033 32.0893 70.2187 31.3992 70.586C30.7091 70.9533 30.131 71.2687 30.0837 71.2033Z"
        fill="#A5B2E2" />
    <path
        d="M26.0957 75.3691C26.2105 74.8851 26.4497 74.4393 26.7897 74.0761C27.0574 73.6528 27.43 73.306 27.8714 73.0693C27.6573 73.5074 27.3779 73.9104 27.0428 74.2646C26.7857 74.6792 26.4663 75.0518 26.0957 75.3691Z"
        fill="#A5B2E2" />
    <path
        d="M24.4114 80.8777C24.2905 80.3917 24.2974 79.8827 24.4313 79.4001C24.469 78.9037 24.6369 78.426 24.9183 78.0153C24.9227 78.5021 24.8594 78.9871 24.7303 79.4565C24.6933 79.9432 24.5859 80.4219 24.4114 80.8777Z"
        fill="#A5B2E2" />
    <path
        d="M25.0858 86.6141C25.0038 86.6413 24.7468 86.0319 24.5851 85.2361C24.4355 84.7627 24.4033 84.2601 24.4913 83.7716C24.5768 83.765 24.7153 84.3981 24.8787 85.1757C25.0257 85.6407 25.0956 86.1266 25.0858 86.6141Z"
        fill="#A5B2E2" />
    <path
        d="M27.4065 91.9317C27.0415 91.5977 26.7575 91.185 26.5758 90.7249C26.202 90.0065 26.0039 89.3788 26.0829 89.3439C26.4044 89.7123 26.6604 90.133 26.8398 90.5879C27.2054 91.2963 27.4825 91.8892 27.4065 91.9317Z"
        fill="#A5B2E2" />
    <path
        d="M30.8411 96.6103C30.0783 95.9959 29.4537 95.2276 29.0078 94.3555C29.4171 94.6281 29.7689 94.9784 30.0435 95.3864C30.3893 95.7363 30.6607 96.1526 30.8411 96.6103Z"
        fill="#A5B2E2" />
    <path
        d="M35.1789 100.459C34.7055 100.311 34.2734 100.054 33.917 99.7094C33.4982 99.444 33.1489 99.0822 32.8984 98.6543C33.3427 98.8593 33.75 99.1365 34.1037 99.4746C34.5176 99.7366 34.8817 100.07 35.1789 100.459Z"
        fill="#A5B2E2" />
    <path
        d="M40.3479 103.073C39.368 102.956 38.4404 102.567 37.6701 101.95C38.1514 102.026 38.616 102.185 39.0437 102.419C39.5117 102.563 39.9525 102.784 40.3479 103.073Z"
        fill="#A5B2E2" />
    <path
        d="M46.0575 103.973C45.093 104.18 44.0895 104.107 43.1647 103.764C43.6473 103.686 44.1397 103.689 44.6211 103.775C45.1077 103.759 45.5936 103.826 46.0575 103.973Z"
        fill="#A5B2E2" />
    <path
        d="M51.769 103.033C51.7962 103.115 51.1832 103.408 50.4057 103.572C49.9385 103.735 49.4394 103.786 48.9489 103.72C48.937 103.632 49.5613 103.471 50.3376 103.281C50.7985 103.123 51.2817 103.039 51.769 103.033Z"
        fill="#A5B2E2" />
    <path
        d="M57.0041 100.552C56.6883 100.932 56.2871 101.233 55.8333 101.43C55.129 101.829 54.5072 102.043 54.47 101.969C54.4328 101.895 54.992 101.565 55.6886 101.169C56.3852 100.773 56.9539 100.479 57.0041 100.552Z"
        fill="#A5B2E2" />
    <path
        d="M61.4224 96.7937C61.2198 97.2463 60.9109 97.6432 60.5219 97.9507C59.9399 98.5184 59.3901 98.8844 59.3375 98.8167C59.5971 98.4039 59.9247 98.038 60.3065 97.7345C60.6243 97.3618 61.0013 97.044 61.4224 96.7937Z"
        fill="#A5B2E2" />
    <path
        d="M64.7606 92.0532C64.4802 92.9967 63.9534 93.8485 63.2345 94.5208C63.614 93.6251 64.1287 92.7928 64.7606 92.0532Z"
        fill="#A5B2E2" />
    <path
        d="M66.9716 86.6886C66.9607 87.1802 66.8457 87.664 66.6344 88.1081C66.5137 88.5858 66.2995 89.0349 66.0041 89.4293C66.1368 88.4574 66.4669 87.5229 66.974 86.6833L66.9716 86.6886Z"
        fill="#A5B2E2" />
    <path
        d="M68.1361 81.0034C68.2146 81.4902 68.1907 81.988 68.066 82.4651C68.0396 82.9557 67.9132 83.4358 67.6946 83.8758C67.6192 83.3888 67.643 82.8916 67.7647 82.4141C67.7906 81.9234 67.917 81.4432 68.1361 81.0034Z"
        fill="#A5B2E2" />
    <path
        d="M68.257 75.1894C68.3425 75.1828 68.435 75.8337 68.4593 76.6385C68.5103 77.1296 68.4589 77.6259 68.3084 78.0961C68.1252 77.1373 68.1078 76.1541 68.257 75.1894Z"
        fill="#A5B2E2" />
    <path
        d="M67.6942 69.4088C67.782 69.397 67.9182 70.0354 68.0144 70.8213C68.1108 71.3004 68.108 71.7943 68.0062 72.2723C67.8083 71.8269 67.6995 71.3471 67.686 70.8599C67.5948 70.3802 67.5976 69.8874 67.6942 69.4088Z"
        fill="#A5B2E2" />
    <path
        d="M67.1085 63.627C67.194 63.6204 67.3148 64.2647 67.3881 65.0595C67.4799 65.5447 67.4747 66.0432 67.3728 66.5264C67.1862 66.0702 67.0919 65.5815 67.0956 65.0886C66.9991 64.6057 67.0035 64.1081 67.1085 63.627Z"
        fill="#A5B2E2" />
    <path
        d="M67.2031 57.8242C67.3486 58.793 67.289 59.7815 67.0282 60.7258C66.9039 60.248 66.8825 59.7492 66.9656 59.2625C66.9462 58.7719 67.027 58.2825 67.2031 57.8242Z"
        fill="#A5B2E2" />
    <path
        d="M68.6134 52.2055C68.5837 52.6942 68.4658 53.1735 68.2656 53.6203C68.1644 54.0975 67.9815 54.5537 67.725 54.9686C67.694 54.4742 67.7825 53.9797 67.9831 53.5268C68.0875 53.0433 68.3033 52.5908 68.6134 52.2055Z"
        fill="#A5B2E2" />
    <path
        d="M71.3943 47.1181C71.2394 47.5815 71.0082 48.0157 70.7103 48.4029C70.493 48.842 70.1988 49.2386 69.8417 49.574C69.9347 49.0867 70.1385 48.6272 70.4372 48.231C70.6641 47.7898 70.992 47.4085 71.3943 47.1181Z"
        fill="#A5B2E2" />
    <path
        d="M75.3449 42.8801C75.0811 43.2926 74.7479 43.6564 74.36 43.9552C74.0389 44.3241 73.6578 44.6362 73.2329 44.8783C73.7426 44.033 74.4726 43.3422 75.3449 42.8801Z"
        fill="#A5B2E2" />
    <path
        d="M80.2555 39.7905C80.2904 39.8695 79.7282 40.1919 79.0257 40.5728C78.3232 40.9537 77.7321 41.2697 77.699 41.1724C78.0182 40.7925 78.4245 40.4954 78.8834 40.3064C79.5935 39.9226 80.2236 39.7192 80.2555 39.7905Z"
        fill="#A5B2E2" />
    <path
        d="M85.7865 38.065C85.8007 38.1475 85.1718 38.3197 84.4007 38.5114C83.9392 38.674 83.4534 38.7572 82.9641 38.7573C82.9369 38.6754 83.5551 38.3842 84.3274 38.2184C84.795 38.0535 85.2948 38.0009 85.7865 38.065Z"
        fill="#A5B2E2" />
    <path
        d="M91.5792 37.7609C91.1026 37.8709 90.6109 37.8999 90.1247 37.8465C89.6389 37.8928 89.1489 37.8539 88.6765 37.7316C88.6699 37.6461 89.3202 37.5406 90.1291 37.5499C90.6225 37.5013 91.1202 37.5738 91.5792 37.7609Z"
        fill="#A5B2E2" />
    <path
        d="M95.8753 38.4971C95.8423 38.5714 95.5198 38.5681 95.1359 38.4741C94.752 38.3801 94.4441 38.2436 94.4564 38.1728C94.4687 38.1021 94.8066 38.0994 95.1981 38.1905C95.5897 38.2815 95.9082 38.4227 95.8753 38.4971Z"
        fill="#A5B2E2" />
    <path
        d="M113.62 27.6645C113.62 27.6645 121.824 25.9793 129.19 32.6625C129.19 32.6625 126.728 40.1209 117.292 42.7341"
        fill="#A29BDC" />
    <path
        d="M88.1122 32.1468C88.2011 32.6626 90.1466 46.5409 90.1466 46.5409L116.013 43.0313C117.08 42.8863 118.106 42.5212 119.026 41.959C119.945 41.3968 120.737 40.6499 121.353 39.7655C121.968 38.8811 122.393 37.8785 122.601 36.8213C122.809 35.764 122.795 34.6751 122.56 33.6236C122.122 31.6713 120.949 29.9627 119.285 28.8531C117.62 27.7434 115.592 27.3182 113.621 27.6658L88.1122 32.1468Z"
        fill="#A29BDC" />
    <path
        d="M90.1471 46.5412L86.2964 53.9938C86.2964 53.9938 102.286 53.4609 102.145 44.9116L90.1471 46.5412Z"
        fill="#A5B2E2" />
    <path
        d="M100.327 30.0026C100.327 30.0026 93.1449 22.1046 83.237 24.6227L88.1144 32.1465L100.327 30.0026Z"
        fill="#A5B2E2" />
    <path
        d="M97.477 36.3063L81.243 38.6365C81.243 38.6365 81.071 40.1992 81.4625 40.233C81.8541 40.2669 93.8414 38.8613 97.7483 38.4021C97.8978 38.3842 98.0417 38.3341 98.1701 38.2554C98.2985 38.1767 98.4083 38.0712 98.4922 37.9461C98.576 37.821 98.6318 37.6793 98.6557 37.5306C98.6797 37.3819 98.6712 37.2298 98.631 37.0847C98.5666 36.8366 98.4139 36.6205 98.2013 36.4771C97.9888 36.3337 97.7312 36.273 97.477 36.3063Z"
        fill="#A5B2E2" />
    <path
        d="M115.386 38.1517C116.87 36.1936 116.486 33.4036 114.527 31.9199C112.569 30.4363 109.779 30.8209 108.296 32.7789C106.812 34.7369 107.197 37.527 109.155 39.0106C111.113 40.4943 113.903 40.1097 115.386 38.1517Z"
        fill="#C9D2F4" />
    <path
        d="M115.903 37.2642C115.871 37.2501 116.063 36.9033 116.155 36.2074C116.305 35.2305 116.121 34.2317 115.634 33.3719C115.305 32.7835 114.843 32.2804 114.284 31.9032C113.645 31.4718 112.903 31.2173 112.134 31.1657C111.278 31.0995 110.421 31.2932 109.677 31.7215C108.882 32.1748 108.252 32.8708 107.881 33.7076C107.51 34.5444 107.417 35.4781 107.615 36.3718C107.794 37.2057 108.217 37.9678 108.829 38.5617C109.384 39.0969 110.071 39.4759 110.819 39.6602C111.474 39.8208 112.157 39.8257 112.814 39.6743C113.778 39.4564 114.641 38.9222 115.266 38.1569C115.703 37.6141 115.85 37.2407 115.881 37.2548C115.856 37.3489 115.817 37.4384 115.764 37.5203C115.651 37.7699 115.51 38.0059 115.344 38.2234C114.821 38.9167 114.109 39.4436 113.293 39.7403C112.477 40.037 111.593 40.0907 110.747 39.8949C109.904 39.7028 109.133 39.2747 108.525 38.6607C107.916 38.0467 107.495 37.272 107.311 36.4275C107.095 35.4724 107.193 34.4733 107.589 33.5782C107.986 32.6831 108.661 31.9398 109.514 31.4587C110.303 31.0052 111.211 30.8009 112.118 30.8727C112.881 30.926 113.619 31.1727 114.261 31.5896C114.902 32.0064 115.428 32.5798 115.787 33.2556C116.293 34.1664 116.462 35.2263 116.264 36.2492C116.214 36.5186 116.134 36.7813 116.025 37.0324C115.996 37.1154 115.955 37.1935 115.903 37.2642Z"
        fill="#A5B2E2" />
    <path
        d="M119.642 42.1954C119.589 42.1719 119.881 41.355 120.116 39.9792C120.252 39.1736 120.331 38.3594 120.352 37.5427C120.392 35.5438 120.079 33.5535 119.427 31.6634C119.158 30.8928 118.835 30.1424 118.46 29.4178C117.807 28.182 117.281 27.4914 117.329 27.4554C117.48 27.5932 117.613 27.7485 117.727 27.9179C117.878 28.1057 118.018 28.3014 118.147 28.5042C118.296 28.7417 118.479 29.0009 118.645 29.3156C119.056 30.0352 119.404 30.7888 119.685 31.5682C120.389 33.4812 120.709 35.514 120.628 37.5508C120.596 38.3794 120.496 39.204 120.329 40.0162C120.269 40.3647 120.172 40.6708 120.101 40.9444C120.041 41.1762 119.967 41.4044 119.881 41.628C119.829 41.8276 119.748 42.0187 119.642 42.1954Z"
        fill="#A5B2E2" />
    <path
        d="M118.298 42.2721C118.245 42.2485 118.536 41.4187 118.776 40.0193C118.912 39.2015 118.992 38.3752 119.015 37.5463C119.032 36.5309 118.966 35.5158 118.817 34.5112C118.655 33.5096 118.413 32.5227 118.092 31.5602C117.822 30.7729 117.496 30.0061 117.115 29.2657C116.461 28.0039 115.93 27.298 115.977 27.262C116.137 27.4058 116.278 27.5686 116.398 27.7469C116.548 27.9372 116.686 28.1366 116.813 28.3438C116.967 28.5837 117.151 28.8559 117.304 29.1972C117.714 29.9234 118.067 30.6807 118.358 31.4621C118.701 32.4369 118.955 33.4405 119.119 34.4608C119.267 35.4831 119.325 36.5165 119.293 37.549C119.259 38.3916 119.157 39.2302 118.988 40.0563C118.926 40.4101 118.826 40.7215 118.756 40.9952C118.698 41.2318 118.624 41.4645 118.536 41.6917C118.478 41.8934 118.398 42.0881 118.298 42.2721Z"
        fill="#A5B2E2" />
    <g filter="url(#filter0_d_2588_138366)">
        <path
            d="M77.2677 62.3162H63.9515V58.9872C63.9515 56.3384 62.8992 53.7981 61.0263 51.9252C59.1533 50.0522 56.613 49 53.9643 49H40.6481C37.9993 49 35.459 50.0522 33.5861 51.9252C31.7131 53.7981 30.6609 56.3384 30.6609 58.9872V62.3162H17.3447C16.4618 62.3162 15.615 62.667 14.9907 63.2913C14.3664 63.9156 14.0156 64.7624 14.0156 65.6453V78.9615C14.0231 80.3576 14.3233 81.7367 14.8967 83.0097C15.4701 84.2826 16.304 85.4212 17.3447 86.352V105.594C17.3447 108.243 18.3969 110.783 20.2699 112.656C22.1428 114.529 24.6831 115.581 27.3318 115.581H67.2805C69.9293 115.581 72.4695 114.529 74.3425 112.656C76.2155 110.783 77.2677 108.243 77.2677 105.594V86.352C78.3083 85.4212 79.1423 84.2826 79.7157 83.0097C80.2891 81.7367 80.5892 80.3576 80.5967 78.9615V65.6453C80.5967 64.7624 80.246 63.9156 79.6217 63.2913C78.9974 62.667 78.1506 62.3162 77.2677 62.3162ZM37.319 58.9872C37.319 58.1042 37.6698 57.2575 38.2941 56.6332C38.9184 56.0088 39.7651 55.6581 40.6481 55.6581H53.9643C54.8472 55.6581 55.694 56.0088 56.3183 56.6332C56.9426 57.2575 57.2933 58.1042 57.2933 58.9872V62.3162H37.319V58.9872ZM70.6096 105.594C70.6096 106.477 70.2588 107.324 69.6345 107.948C69.0102 108.572 68.1634 108.923 67.2805 108.923H27.3318C26.4489 108.923 25.6022 108.572 24.9778 107.948C24.3535 107.324 24.0028 106.477 24.0028 105.594V88.9487H30.6609V92.2777C30.6609 93.1606 31.0116 94.0074 31.636 94.6317C32.2603 95.256 33.107 95.6068 33.99 95.6068C34.8729 95.6068 35.7196 95.256 36.344 94.6317C36.9683 94.0074 37.319 93.1606 37.319 92.2777V88.9487H57.2933V92.2777C57.2933 93.1606 57.6441 94.0074 58.2684 94.6317C58.8927 95.256 59.7395 95.6068 60.6224 95.6068C61.5053 95.6068 62.3521 95.256 62.9764 94.6317C63.6007 94.0074 63.9515 93.1606 63.9515 92.2777V88.9487H70.6096V105.594ZM73.9386 78.9615C73.9386 79.8444 73.5879 80.6912 72.9636 81.3155C72.3392 81.9398 71.4925 82.2906 70.6096 82.2906H63.9515V78.9615C63.9515 78.0786 63.6007 77.2318 62.9764 76.6075C62.3521 75.9832 61.5053 75.6324 60.6224 75.6324C59.7395 75.6324 58.8927 75.9832 58.2684 76.6075C57.6441 77.2318 57.2933 78.0786 57.2933 78.9615V82.2906H37.319V78.9615C37.319 78.0786 36.9683 77.2318 36.344 76.6075C35.7196 75.9832 34.8729 75.6324 33.99 75.6324C33.107 75.6324 32.2603 75.9832 31.636 76.6075C31.0116 77.2318 30.6609 78.0786 30.6609 78.9615V82.2906H24.0028C23.1199 82.2906 22.2731 81.9398 21.6488 81.3155C21.0245 80.6912 20.6737 79.8444 20.6737 78.9615V68.9743H73.9386V78.9615Z"
            fill="#A29BDC" />
    </g>
    <defs>
        <filter id="filter0_d_2588_138366" x="8.35938" y="42.8438" width="87.8984" height="87.8965"
            filterUnits="userSpaceOnUse" color-interpolation-filters="sRGB">
            <feFlood flood-opacity="0" result="BackgroundImageFix" />
            <feGaussianBlur stdDeviation="2" />
            <feComposite in2="hardAlpha" operator="out" />
            <feBlend mode="normal" in2="BackgroundImageFix" result="effect1_dropShadow_2588_138366" />
            <feBlend mode="normal" in="SourceGraphic" in2="effect1_dropShadow_2588_138366"
                result="shape" />
        </filter>
    </defs>
</svg>