<svg xmlns="http://www.w3.org/2000/svg" width="24" height="25" viewBox="0 0 24 25" fill="none">
  <path d="M7 16.5C7.39782 16.5 7.77936 16.342 8.06066 16.0607C8.34196 15.7794 8.5 15.3978 8.5 15C8.50488 14.9501 8.50488 14.8999 8.5 14.85L11.29 12.06H11.52H11.75L13.36 13.67C13.36 13.67 13.36 13.72 13.36 13.75C13.36 14.1478 13.518 14.5294 13.7993 14.8107C14.0806 15.092 14.4622 15.25 14.86 15.25C15.2578 15.25 15.6394 15.092 15.9207 14.8107C16.202 14.5294 16.36 14.1478 16.36 13.75V13.67L20 10C20.2967 10 20.5867 9.91203 20.8334 9.7472C21.08 9.58238 21.2723 9.34811 21.3858 9.07403C21.4993 8.79994 21.5291 8.49834 21.4712 8.20736C21.4133 7.91639 21.2704 7.64912 21.0607 7.43934C20.8509 7.22956 20.5836 7.0867 20.2926 7.02882C20.0017 6.97094 19.7001 7.00065 19.426 7.11418C19.1519 7.22771 18.9176 7.41997 18.7528 7.66664C18.588 7.91332 18.5 8.20333 18.5 8.5C18.4951 8.54988 18.4951 8.60012 18.5 8.65L14.89 12.26H14.73L13 10.5C13 10.1022 12.842 9.72064 12.5607 9.43934C12.2794 9.15804 11.8978 9 11.5 9C11.1022 9 10.7206 9.15804 10.4393 9.43934C10.158 9.72064 10 10.1022 10 10.5L7 13.5C6.60218 13.5 6.22064 13.658 5.93934 13.9393C5.65804 14.2206 5.5 14.6022 5.5 15C5.5 15.3978 5.65804 15.7794 5.93934 16.0607C6.22064 16.342 6.60218 16.5 7 16.5ZM20.5 20.5H3.5V3.5C3.5 3.23478 3.39464 2.98043 3.20711 2.79289C3.01957 2.60536 2.76522 2.5 2.5 2.5C2.23478 2.5 1.98043 2.60536 1.79289 2.79289C1.60536 2.98043 1.5 3.23478 1.5 3.5V21.5C1.5 21.7652 1.60536 22.0196 1.79289 22.2071C1.98043 22.3946 2.23478 22.5 2.5 22.5H20.5C20.7652 22.5 21.0196 22.3946 21.2071 22.2071C21.3946 22.0196 21.5 21.7652 21.5 21.5C21.5 21.2348 21.3946 20.9804 21.2071 20.7929C21.0196 20.6054 20.7652 20.5 20.5 20.5Z" fill="#BABABA"/>
</svg>