<svg xmlns="http://www.w3.org/2000/svg" width="24" height="25" viewBox="0 0 24 25" fill="none">
  <path d="M21.65 2.73917C21.541 2.64563 21.4131 2.57667 21.2751 2.53698C21.137 2.49729 20.992 2.48781 20.85 2.50917L7.85 4.50917C7.61326 4.54509 7.39727 4.66476 7.24129 4.84644C7.0853 5.02811 6.99969 5.25972 7 5.49917V15.8492C6.53277 15.621 6.01999 15.5013 5.5 15.4992C4.80777 15.4992 4.13108 15.7044 3.55551 16.089C2.97993 16.4736 2.53133 17.0202 2.26642 17.6598C2.00152 18.2993 1.9322 19.0031 2.06725 19.682C2.2023 20.3609 2.53564 20.9846 3.02513 21.474C3.51461 21.9635 4.13825 22.2969 4.81719 22.4319C5.49612 22.567 6.19985 22.4977 6.83939 22.2328C7.47894 21.9678 8.02556 21.5192 8.41015 20.9437C8.79473 20.3681 9 19.6914 9 18.9992V11.3592L20 9.66917V13.8492C19.5328 13.621 19.02 13.5013 18.5 13.4992C17.8078 13.4992 17.1311 13.7044 16.5555 14.089C15.9799 14.4736 15.5313 15.0202 15.2664 15.6598C15.0015 16.2993 14.9322 17.0031 15.0673 17.682C15.2023 18.3609 15.5356 18.9846 16.0251 19.474C16.5146 19.9635 17.1383 20.2969 17.8172 20.4319C18.4961 20.567 19.1999 20.4977 19.8394 20.2328C20.4789 19.9678 21.0256 19.5192 21.4101 18.9437C21.7947 18.3681 22 17.6914 22 16.9992V3.49917C22 3.35473 21.9687 3.212 21.9083 3.08081C21.8479 2.94961 21.7598 2.83306 21.65 2.73917ZM5.5 20.4992C5.20333 20.4992 4.91332 20.4112 4.66665 20.2464C4.41997 20.0816 4.22771 19.8473 4.11418 19.5732C4.00065 19.2991 3.97095 18.9975 4.02882 18.7065C4.0867 18.4156 4.22956 18.1483 4.43934 17.9385C4.64912 17.7287 4.91639 17.5859 5.20737 17.528C5.49834 17.4701 5.79994 17.4998 6.07403 17.6134C6.34812 17.7269 6.58238 17.9191 6.74721 18.1658C6.91203 18.4125 7 18.7025 7 18.9992C7 19.397 6.84197 19.7785 6.56066 20.0598C6.27936 20.3411 5.89783 20.4992 5.5 20.4992ZM18.5 18.4992C18.2033 18.4992 17.9133 18.4112 17.6666 18.2464C17.42 18.0816 17.2277 17.8473 17.1142 17.5732C17.0007 17.2991 16.9709 16.9975 17.0288 16.7065C17.0867 16.4156 17.2296 16.1483 17.4393 15.9385C17.6491 15.7287 17.9164 15.5859 18.2074 15.528C18.4983 15.4701 18.7999 15.4998 19.074 15.6134C19.3481 15.7269 19.5824 15.9191 19.7472 16.1658C19.912 16.4125 20 16.7025 20 16.9992C20 17.397 19.842 17.7785 19.5607 18.0598C19.2794 18.3411 18.8978 18.4992 18.5 18.4992ZM20 7.63917L9 9.32917V6.32917L20 4.66917V7.63917Z" fill="#BABABA"/>
</svg>