<svg xmlns="http://www.w3.org/2000/svg" width="24" height="25" viewBox="0 0 24 25" fill="none">
  <path d="M5.64 17.5L4.93 18.21C4.74375 18.3974 4.63921 18.6508 4.63921 18.915C4.63921 19.1792 4.74375 19.4326 4.93 19.62C5.11736 19.8063 5.37081 19.9108 5.635 19.9108C5.89919 19.9108 6.15264 19.8063 6.34 19.62L7.05 18.91C7.21383 18.7187 7.29943 18.4726 7.28971 18.2209C7.27999 17.9693 7.17566 17.7305 6.99756 17.5524C6.81947 17.3743 6.58073 17.27 6.32905 17.2603C6.07738 17.2506 5.8313 17.3362 5.64 17.5ZM5 12.5C5 12.2348 4.89464 11.9804 4.70711 11.7929C4.51957 11.6054 4.26522 11.5 4 11.5H3C2.73478 11.5 2.48043 11.6054 2.29289 11.7929C2.10536 11.9804 2 12.2348 2 12.5C2 12.7652 2.10536 13.0196 2.29289 13.2071C2.48043 13.3946 2.73478 13.5 3 13.5H4C4.26522 13.5 4.51957 13.3946 4.70711 13.2071C4.89464 13.0196 5 12.7652 5 12.5ZM12 5.5C12.2652 5.5 12.5196 5.39464 12.7071 5.20711C12.8946 5.01957 13 4.76522 13 4.5V3.5C13 3.23478 12.8946 2.98043 12.7071 2.79289C12.5196 2.60536 12.2652 2.5 12 2.5C11.7348 2.5 11.4804 2.60536 11.2929 2.79289C11.1054 2.98043 11 3.23478 11 3.5V4.5C11 4.76522 11.1054 5.01957 11.2929 5.20711C11.4804 5.39464 11.7348 5.5 12 5.5ZM5.64 7.55C5.82626 7.73474 6.07766 7.8389 6.34 7.84C6.47161 7.84076 6.60207 7.81554 6.72391 7.76577C6.84574 7.71601 6.95656 7.64268 7.05 7.55C7.23625 7.36264 7.34079 7.10919 7.34079 6.845C7.34079 6.58081 7.23625 6.32736 7.05 6.14L6.34 5.43C6.1487 5.26617 5.90262 5.18057 5.65095 5.19029C5.39927 5.20001 5.16053 5.30434 4.98244 5.48244C4.80434 5.66053 4.70001 5.89927 4.69029 6.15095C4.68057 6.40262 4.76617 6.6487 4.93 6.84L5.64 7.55ZM17.64 7.84C17.9023 7.8389 18.1537 7.73474 18.34 7.55L19.05 6.84C19.1547 6.75035 19.2397 6.64004 19.2997 6.51597C19.3597 6.39191 19.3935 6.25677 19.3988 6.11905C19.4041 5.98133 19.3809 5.844 19.3306 5.71568C19.2804 5.58735 19.2041 5.4708 19.1066 5.37335C19.0092 5.27589 18.8926 5.19964 18.7643 5.14936C18.636 5.09909 18.4987 5.07588 18.3609 5.0812C18.2232 5.08652 18.0881 5.12025 17.964 5.18027C17.84 5.2403 17.7296 5.32532 17.64 5.43L17 6.14C16.8137 6.32736 16.7092 6.58081 16.7092 6.845C16.7092 7.10919 16.8137 7.36264 17 7.55C17.1763 7.72536 17.4116 7.82875 17.66 7.84H17.64ZM21 11.5H20C19.7348 11.5 19.4804 11.6054 19.2929 11.7929C19.1054 11.9804 19 12.2348 19 12.5C19 12.7652 19.1054 13.0196 19.2929 13.2071C19.4804 13.3946 19.7348 13.5 20 13.5H21C21.2652 13.5 21.5196 13.3946 21.7071 13.2071C21.8946 13.0196 22 12.7652 22 12.5C22 12.2348 21.8946 11.9804 21.7071 11.7929C21.5196 11.6054 21.2652 11.5 21 11.5ZM12 19.5C11.7348 19.5 11.4804 19.6054 11.2929 19.7929C11.1054 19.9804 11 20.2348 11 20.5V21.5C11 21.7652 11.1054 22.0196 11.2929 22.2071C11.4804 22.3946 11.7348 22.5 12 22.5C12.2652 22.5 12.5196 22.3946 12.7071 22.2071C12.8946 22.0196 13 21.7652 13 21.5V20.5C13 20.2348 12.8946 19.9804 12.7071 19.7929C12.5196 19.6054 12.2652 19.5 12 19.5ZM18.36 17.5C18.17 17.3943 17.9508 17.3534 17.7355 17.3835C17.5202 17.4136 17.3205 17.5131 17.1668 17.6668C17.0131 17.8205 16.9136 18.0202 16.8835 18.2355C16.8534 18.4508 16.8943 18.67 17 18.86L17.71 19.57C17.8974 19.7563 18.1508 19.8608 18.415 19.8608C18.6792 19.8608 18.9326 19.7563 19.12 19.57C19.3063 19.3826 19.4108 19.1292 19.4108 18.865C19.4108 18.6008 19.3063 18.3474 19.12 18.16L18.36 17.5ZM12 7C10.9122 7 9.84883 7.32257 8.94436 7.92692C8.03989 8.53126 7.33494 9.39025 6.91866 10.3952C6.50238 11.4002 6.39346 12.5061 6.60568 13.573C6.8179 14.6399 7.34172 15.6199 8.11091 16.3891C8.8801 17.1583 9.86011 17.6821 10.927 17.8943C11.9939 18.1065 13.0998 17.9976 14.1048 17.5813C15.1098 17.1651 15.9687 16.4601 16.5731 15.5556C17.1774 14.6512 17.5 13.5878 17.5 12.5C17.4974 11.0421 16.917 9.64471 15.8862 8.61383C14.8553 7.58295 13.4579 7.00264 12 7ZM12 16C11.3078 16 10.6311 15.7947 10.0555 15.4101C9.47993 15.0256 9.03133 14.4789 8.76642 13.8394C8.50151 13.1999 8.4322 12.4961 8.56725 11.8172C8.7023 11.1383 9.03564 10.5146 9.52513 10.0251C10.0146 9.53564 10.6383 9.2023 11.3172 9.06725C11.9961 8.9322 12.6999 9.00151 13.3394 9.26642C13.9789 9.53133 14.5256 9.97993 14.9101 10.5555C15.2947 11.1311 15.5 11.8078 15.5 12.5C15.5 13.4283 15.1313 14.3185 14.4749 14.9749C13.8185 15.6313 12.9283 16 12 16Z" fill="#BABABA"/>
</svg>