<svg width="16" height="17" viewBox="0 0 16 17" fill="none" xmlns="http://www.w3.org/2000/svg">
<g clip-path="url(#clip0_3180_202445)">
<path d="M11.5 0.5H5.5C4.44199 0.5 3.50001 1.47051 3.50001 2.50001L2.922 2.51351C1.8645 2.51351 1 3.4705 1 4.5V14.5C1 15.5295 1.942 16.5 3.00001 16.5H10.5C11.558 16.5 12.5 15.5295 12.5 14.5H13C14.058 14.5 15 13.5295 15 12.5V4.51201L11.5 0.5ZM10.5 15.5H3.00001C2.47501 15.5 2.00002 15.0095 2.00002 14.5V4.5C2.00002 3.99051 2.42752 3.5165 2.95252 3.5165L3.50001 3.50001V12.5C3.50001 13.5295 4.44199 14.5 5.5 14.5H11.5C11.5 15.0095 11.025 15.5 10.5 15.5ZM14 12.5C14 13.0095 13.525 13.5 13 13.5H5.5C4.975 13.5 4.5 13.0095 4.5 12.5V2.50001C4.5 1.99052 4.975 1.50002 5.5 1.50002H10.5C10.492 2.65152 10.5 3.51252 10.5 3.51252C10.5 4.55152 11.435 5.50002 12.5 5.50002H14V12.5ZM12.5 4.5C11.9675 4.5 11.5 3.53251 11.5 3.01351V1.5145L14 4.5H12.5ZM11.5 7.50902H7.00001C6.72401 7.50902 6.50001 7.73252 6.50001 8.00851C6.50001 8.28451 6.72401 8.50801 7.00001 8.50801H11.5C11.776 8.50801 12 8.28449 12 8.00851C12 7.73252 11.776 7.50902 11.5 7.50902ZM11.5 10.0065H7.00001C6.72401 10.0065 6.50001 10.23 6.50001 10.506C6.50001 10.782 6.72401 11.0055 7.00001 11.0055H11.5C11.776 11.0055 12 10.782 12 10.506C12 10.23 11.776 10.0065 11.5 10.0065Z" fill="#222222"/>
</g>
<defs>
<clipPath id="clip0_3180_202445">
<rect width="16" height="16" fill="white" transform="translate(0 0.5)"/>
</clipPath>
</defs>
</svg>
