<svg width="13" height="15" viewBox="0 0 13 15" fill="none" xmlns="http://www.w3.org/2000/svg">
<path fill-rule="evenodd" clip-rule="evenodd" d="M6.16359 14.1666C5.26025 14.1666 4.37959 14.1566 3.50825 14.1386C2.39358 14.1166 1.62225 13.3939 1.49625 12.2526C1.28625 10.3593 0.926918 5.8966 0.923585 5.85194C0.900918 5.5766 1.10625 5.33527 1.38159 5.31327C1.65292 5.30594 1.89825 5.4966 1.92025 5.77127C1.92359 5.8166 2.28225 10.2639 2.49025 12.1426C2.56159 12.7913 2.91158 13.1259 3.52892 13.1386C5.19559 13.1739 6.89625 13.1759 8.72959 13.1426C9.38558 13.1299 9.74025 12.8019 9.81359 12.1379C10.0203 10.2753 10.3803 5.8166 10.3843 5.77127C10.4063 5.4966 10.6496 5.3046 10.9223 5.31327C11.1976 5.33594 11.4029 5.5766 11.3809 5.85194C11.3769 5.89727 11.0156 10.3713 10.8076 12.2479C10.6783 13.4126 9.90892 14.1213 8.74759 14.1426C7.85892 14.1579 7.00159 14.1666 6.16359 14.1666Z" fill="#DE0C0C"/>
<path fill-rule="evenodd" clip-rule="evenodd" d="M11.8053 4.15942H0.5C0.224 4.15942 0 3.93542 0 3.65942C0 3.38342 0.224 3.15942 0.5 3.15942H11.8053C12.0813 3.15942 12.3053 3.38342 12.3053 3.65942C12.3053 3.93542 12.0813 4.15942 11.8053 4.15942Z" fill="#DE0C0C"/>
<path fill-rule="evenodd" clip-rule="evenodd" d="M9.62836 4.1595C8.86969 4.1595 8.21102 3.61883 8.06169 2.87483L7.89969 2.06416C7.86569 1.94083 7.72502 1.8335 7.56502 1.8335H4.74302C4.58302 1.8335 4.44235 1.94083 4.40169 2.09483L4.24635 2.87483C4.09769 3.61883 3.43835 4.1595 2.67969 4.1595C2.40369 4.1595 2.17969 3.9355 2.17969 3.6595C2.17969 3.3835 2.40369 3.1595 2.67969 3.1595C2.96369 3.1595 3.21035 2.95683 3.26635 2.67816L3.42835 1.8675C3.59302 1.24616 4.13102 0.833496 4.74302 0.833496H7.56502C8.17702 0.833496 8.71502 1.24616 8.87302 1.8375L9.04235 2.67816C9.09769 2.95683 9.34436 3.1595 9.62836 3.1595C9.90436 3.1595 10.1284 3.3835 10.1284 3.6595C10.1284 3.9355 9.90436 4.1595 9.62836 4.1595Z" fill="#DE0C0C"/>
</svg>
