<svg width="24" height="24" viewBox="0 0 24 24" fill="none" xmlns="http://www.w3.org/2000/svg">
<path d="M1.77565 21.3986C1.71097 21.253 1.66592 21.1503 1.64013 21.0902C0.546741 18.6473 0 16.7145 0 15.2917C0 13.586 0.228069 12.1587 0.684252 11.0103L1.77565 21.3986ZM1.77565 21.3986C1.83276 21.5277 1.89087 21.6562 1.94999 21.7843L1.77565 21.3986ZM1.24124 11.2333C2.49343 8.13489 5.91516 6.42878 11.9847 6.42878H14.8775H15.4775V5.82878V2.53737C15.4775 2.48069 15.4912 2.43892 15.5465 2.38379L15.5466 2.38374C15.6014 2.32907 15.6444 2.31436 15.7042 2.31436C15.7638 2.31436 15.8068 2.32898 15.862 2.38391L16.2648 1.97929L15.862 2.38392L22.4737 8.96613C22.4738 8.96624 22.4739 8.96634 22.4741 8.96645C22.5291 9.0215 22.5428 9.06342 22.5429 9.12045L1.24124 11.2333ZM1.24124 11.2333C0.821924 12.2897 0.6 13.6358 0.6 15.2917C0.6 16.5848 1.10379 18.4232 2.18778 20.8451L2.19163 20.8537L2.19156 20.8537C2.19578 20.8636 2.2006 20.8747 2.20602 20.8872C2.1778 20.4285 2.16352 20.003 2.16352 19.6119C2.16352 18.7124 2.24181 17.8924 2.40346 17.1561L2.4035 17.156C2.56334 16.4289 2.7885 15.7816 3.08637 15.2221C3.38747 14.6563 3.778 14.165 4.25709 13.7514C4.71817 13.3532 5.21721 13.0255 5.75373 12.7702C6.29389 12.5132 6.91512 12.3176 7.61061 12.1774L1.24124 11.2333ZM15.4775 11.812V12.412V15.7035C15.4775 15.7606 15.4913 15.8023 15.5461 15.8569L15.1228 16.282M15.4775 11.812L22.5429 9.12057C22.5428 9.17755 22.5292 9.21905 22.4742 9.27378L22.8975 9.69899L22.4742 9.27379L15.8625 15.8563C15.8625 15.8563 15.8624 15.8564 15.8624 15.8564C15.8067 15.9116 15.7633 15.9263 15.7039 15.9263C15.6446 15.9263 15.6013 15.9117 15.5457 15.8564L15.1228 16.282M15.4775 11.812H14.8775H11.9847C11.1294 11.812 10.358 11.8379 9.67194 11.8908C8.98016 11.9442 8.29307 12.0397 7.61065 12.1774L7.72924 12.7655M15.4775 11.812L16.2853 16.282C16.1215 16.4447 15.9277 16.5263 15.7039 16.5263C15.4802 16.5263 15.2865 16.4447 15.1228 16.282M15.1228 16.282C14.9593 16.1192 14.8775 15.9263 14.8775 15.7035V13.012V12.412H14.2775H11.9847C11.1409 12.412 10.3854 12.4376 9.71808 12.489C9.05075 12.5405 8.38785 12.6327 7.72924 12.7655M7.72924 12.7655C7.07059 12.8983 6.49807 13.0805 6.01153 13.312C5.52509 13.5435 5.07098 13.8412 4.64918 14.2056L7.72924 12.7655Z" stroke="#222222" stroke-width="1.2"/>
</svg>
