<svg width="24" height="24" viewBox="0 0 24 24" fill="none" xmlns="http://www.w3.org/2000/svg">
    <path d="M11.7608 21.2608L11.7448 21.2658C10.4587 21.6999 9.44947 22.7127 9.02168 24.0001L9.01553 23.9841C8.58273 22.698 7.56978 21.6887 6.28125 21.2609L6.29726 21.2548C7.58464 20.822 8.5926 19.809 9.02168 18.5205L9.02668 18.5365C9.46076 19.8239 10.4736 20.8319 11.761 21.2609L11.7608 21.2608Z" fill="rgb(255, 59, 92)"/>
    <path d="M18.436 5.10194L18.4061 5.11123C17.9156 5.27675 17.4467 5.48743 17.0044 5.73884C15.2873 6.71335 13.9696 8.29589 13.3363 10.2017L13.3247 10.1719C12.519 7.77733 10.6335 5.89864 8.23438 5.10208L8.26425 5.09051C10.0851 4.47833 11.6056 3.24297 12.5814 1.63242C12.8902 1.12316 13.1444 0.576443 13.3365 0L13.3457 0.0298726C13.6612 0.965788 14.1409 1.82195 14.7512 2.56605C15.1397 3.03973 15.5812 3.46766 16.0669 3.84143C16.0669 3.84157 16.067 3.84157 16.067 3.84186C16.7724 4.38485 17.5709 4.81365 18.436 5.10208V5.10194Z" fill="rgb(255, 59, 92)"/>
    <path d="M16.6765 17.593C16.6333 17.7318 16.5787 17.864 16.514 17.9886C16.4603 18.0827 16.4029 18.1769 16.3422 18.2706C15.3438 19.8116 13.4558 21.2728 12.945 21.3381C13.0678 21.282 13.1858 21.2159 13.2975 21.14C13.7338 20.8445 14.0767 20.4044 14.2452 19.8622C14.3047 19.6708 14.339 19.478 14.35 19.2864C14.3526 19.245 14.3539 19.2037 14.3542 19.1624C14.3572 18.7041 14.2285 18.2603 13.9934 17.8806C13.6358 17.2751 12.9008 16.812 12.0244 16.3638C11.1499 15.9168 10.135 15.4842 9.21363 14.9392C8.68507 14.6269 8.18767 14.2774 7.76502 13.867C7.54362 13.6521 7.3458 13.4358 7.16971 13.2194C6.10873 11.798 5.70466 9.91641 6.22793 8.09032C6.5551 7.1111 7.07051 6.33383 7.3974 5.90275C7.57935 5.66277 7.70313 5.53027 7.70313 5.53027C7.70127 5.53685 7.69956 5.54328 7.69784 5.54971C7.69298 5.56315 7.68827 5.57658 7.68341 5.5903C7.66168 5.65234 7.6411 5.7148 7.62137 5.77797C7.51303 6.12658 7.44056 6.47777 7.40169 6.82766C7.36867 7.12482 7.36024 7.42111 7.37496 7.71384C7.40555 8.32215 7.53576 8.91561 7.75444 9.47218C7.76045 9.48733 7.76659 9.50263 7.77274 9.51792C8.11506 10.3679 8.6642 11.1298 9.37843 11.7251C9.70732 11.9994 10.0714 12.2383 10.4666 12.434C11.9952 13.2896 13.8002 13.844 15.1653 14.5627C15.2791 14.6226 15.3898 14.6836 15.4972 14.7464C15.5904 14.8004 15.6807 14.8556 15.7683 14.9122C15.769 14.9126 15.7695 14.9129 15.7702 14.9133C16.4088 15.3662 16.7906 16.1086 16.7853 16.8933C16.7837 17.1252 16.7484 17.3604 16.6761 17.593H16.6765Z" fill="rgb(255, 59, 92)"/>
    </svg>
    