<svg width="48" height="48" viewBox="0 0 48 48" fill="none" xmlns="http://www.w3.org/2000/svg">
<rect width="48" height="48" rx="6" fill="#EEEDF7"/>
<path d="M30.9605 28.1435C29.8106 28.1435 28.7745 28.64 28.0555 29.43L21.5881 25.4244C21.7656 24.9705 21.8567 24.4874 21.8565 24C21.8567 23.5126 21.7657 23.0295 21.5881 22.5756L28.0555 18.5698C28.7746 19.3597 29.8106 19.8565 30.9605 19.8565C33.1266 19.8565 34.8888 18.0943 34.8888 15.9282C34.8888 13.762 33.1266 12 30.9605 12C28.7944 12 27.0322 13.7622 27.0322 15.9284C27.0321 16.4157 27.1231 16.8988 27.3006 17.3527L20.8333 21.3583C20.1142 20.5684 19.0782 20.0716 17.9284 20.0716C15.7622 20.0716 14 21.834 14 24C14 26.1661 15.7622 27.9283 17.9284 27.9283C19.0782 27.9283 20.1143 27.4317 20.8333 26.6416L27.3006 30.6473C27.1231 31.1012 27.0321 31.5844 27.0322 32.0718C27.0322 34.2377 28.7943 36 30.9605 36C33.1266 36 34.8888 34.2377 34.8888 32.0718C34.8888 29.9057 33.1266 28.1435 30.9605 28.1435ZM28.4646 15.9284C28.4646 14.5521 29.5843 13.4325 30.9605 13.4325C32.3367 13.4325 33.4564 14.5521 33.4564 15.9284C33.4564 17.3046 32.3367 18.4243 30.9605 18.4243C29.5842 18.4243 28.4646 17.3046 28.4646 15.9284ZM17.9284 26.4959C16.5519 26.4959 15.4323 25.3762 15.4323 24C15.4323 22.6238 16.5519 21.5041 17.9284 21.5041C19.3046 21.5041 20.4241 22.6238 20.4241 24C20.4241 25.3762 19.3046 26.4959 17.9284 26.4959ZM28.4646 32.0716C28.4646 30.6954 29.5843 29.5757 30.9605 29.5757C32.3367 29.5757 33.4564 30.6954 33.4564 32.0716C33.4564 33.4478 32.3367 34.5675 30.9605 34.5675C29.5842 34.5675 28.4646 33.4478 28.4646 32.0716V32.0716Z" fill="#5448B2"/>
</svg>
