<svg width="12" height="12" viewBox="0 0 12 12" fill="none" xmlns="http://www.w3.org/2000/svg">
<path d="M9.45007 7.3535C9.29899 7.49991 9.22957 7.71166 9.26399 7.91933L9.78257 10.7893C9.82632 11.0326 9.72366 11.2787 9.52007 11.4193C9.32057 11.5652 9.05516 11.5827 8.83757 11.466L6.25399 10.1185C6.16416 10.0707 6.06441 10.045 5.96232 10.0421H5.80424C5.74941 10.0502 5.69574 10.0677 5.64674 10.0946L3.06257 11.4485C2.93482 11.5127 2.79016 11.5354 2.64841 11.5127C2.30307 11.4473 2.07266 11.1183 2.12924 10.7712L2.64841 7.90125C2.68282 7.69183 2.61341 7.47891 2.46232 7.33016L0.355907 5.2885C0.17974 5.11758 0.11849 4.86091 0.19899 4.62933C0.277157 4.39833 0.476657 4.22975 0.717573 4.19183L3.61674 3.77125C3.83724 3.7485 4.03091 3.61433 4.13007 3.416L5.40757 0.796829C5.43791 0.738496 5.47699 0.684829 5.52424 0.639329L5.57674 0.598496C5.60416 0.568163 5.63566 0.543079 5.67066 0.522663L5.73424 0.499329L5.83341 0.458496H6.07899C6.29832 0.481246 6.49141 0.612496 6.59232 0.808496L7.88674 3.416C7.98007 3.60675 8.16149 3.73916 8.37091 3.77125L11.2701 4.19183C11.5151 4.22683 11.7198 4.396 11.8009 4.62933C11.8773 4.86325 11.8114 5.11991 11.6317 5.2885L9.45007 7.3535Z" fill="#707070"/>
</svg>
