<svg width="40" height="40" viewBox="0 0 25 25" fill="none" xmlns="http://www.w3.org/2000/svg">
<path d="M12.4399 6.71937C14.3949 4.67937 17.3599 4.66937 19.2399 6.50937C19.697 6.95138 20.0605 7.48085 20.3088 8.06625C20.557 8.65164 20.685 9.28101 20.685 9.91687C20.685 10.5527 20.557 11.1821 20.3088 11.7675C20.0605 12.3529 19.697 12.8824 19.2399 13.3244L12.9699 19.4444C12.8297 19.5818 12.6412 19.6588 12.4449 19.6588C12.2486 19.6588 12.0601 19.5818 11.9199 19.4444L5.6399 13.3244C5.18279 12.8824 4.81928 12.3529 4.57102 11.7675C4.32276 11.1821 4.19482 10.5527 4.19482 9.91687C4.19482 9.28101 4.32276 8.65164 4.57102 8.06625C4.81928 7.48085 5.18279 6.95138 5.6399 6.50937C7.5249 4.66937 10.4899 4.67937 12.4449 6.71937H12.4399ZM11.4899 7.89937C10.0899 6.29937 7.9949 6.29937 6.6849 7.58437C6.37142 7.8866 6.12207 8.24892 5.95177 8.64969C5.78146 9.05045 5.69368 9.48143 5.69368 9.91687C5.69368 10.3523 5.78146 10.7833 5.95177 11.1841C6.12207 11.5848 6.37142 11.9471 6.6849 12.2494L12.4399 17.8644L18.1949 12.2494C18.5084 11.9471 18.7577 11.5848 18.928 11.1841C19.0983 10.7833 19.1861 10.3523 19.1861 9.91687C19.1861 9.48143 19.0983 9.05045 18.928 8.64969C18.7577 8.24892 18.5084 7.8866 18.1949 7.58437C16.8849 6.30437 14.7949 6.30437 13.3949 7.89937L13.3699 7.92437L12.9649 8.32437C12.8247 8.46179 12.6362 8.53877 12.4399 8.53877C12.2436 8.53877 12.0551 8.46179 11.9149 8.32437L11.5099 7.92437L11.4899 7.89937Z" fill="black" fill-opacity="0.48"/>
</svg>
